<?xml version="1.0" encoding="UTF-8" standalone="no"?>
<!-- Created with Inkscape (http://www.inkscape.org/) -->

<svg
   width="210mm"
   height="297mm"
   viewBox="0 0 210 297"
   version="1.1"
   id="svg5"
   inkscape:version="1.2.1 (9c6d41e410, 2022-07-14)"
   sodipodi:docname="freehand.svg"
   xmlns:inkscape="http://www.inkscape.org/namespaces/inkscape"
   xmlns:sodipodi="http://sodipodi.sourceforge.net/DTD/sodipodi-0.dtd"
   xmlns="http://www.w3.org/2000/svg"
   xmlns:svg="http://www.w3.org/2000/svg">
  <sodipodi:namedview
     id="namedview7"
     pagecolor="#ffffff"
     bordercolor="#999999"
     borderopacity="1"
     inkscape:showpageshadow="0"
     inkscape:pageopacity="0"
     inkscape:pagecheckerboard="0"
     inkscape:deskcolor="#d1d1d1"
     inkscape:document-units="mm"
     showgrid="false"
     inkscape:zoom="1.3049198"
     inkscape:cx="407.6879"
     inkscape:cy="382.01582"
     inkscape:window-width="2256"
     inkscape:window-height="1398"
     inkscape:window-x="-11"
     inkscape:window-y="-11"
     inkscape:window-maximized="1"
     inkscape:current-layer="layer1" />
  <defs
     id="defs2" />
  <g
     inkscape:label="Layer 1"
     inkscape:groupmode="layer"
     id="layer1">
    <path
       style="fill:none;stroke:#000000;stroke-width:0.264583"
       d="m 96.107439,48.256478 c -1.245319,-0.06038 -2.453166,-0.03654 -3.649649,0.202758 -0.235805,0.04716 -2.338501,0.716436 -2.4331,0.811033 -0.04779,0.04779 0,0.135172 0,0.20276 -0.202758,0.202758 -0.374941,0.441608 -0.608275,0.608275 -0.320685,0.22906 -0.889169,0.234407 -1.01379,0.608274 -0.04275,0.128236 0.06045,0.284615 0,0.405516 -0.245227,0.490453 -0.873919,0.671161 -1.216552,1.013791 -0.46941,0.469413 -0.535252,0.867746 -0.811033,1.41931 -0.03821,0.07641 -0.979704,0.759904 -1.01379,0.811032 -0.149961,0.224941 0.08549,0.554562 0,0.811033 -0.03023,0.09068 -0.160015,0.117269 -0.202758,0.202758 -0.145159,0.290317 0,1.066424 0,1.41931 0,0.336219 -0.06555,1.183772 0,1.216549 0.120901,0.06045 0.293047,-0.07498 0.405516,0 0.125746,0.08383 0.112083,0.284615 0.202758,0.405516 0.715576,0.954101 1.482497,1.64533 2.838617,1.41931 0.274873,-0.04581 0.5549,-0.09299 0.811032,-0.202759 0.454793,-0.19491 2.487142,-1.986946 2.635859,-2.4331 0.16061,-0.481833 -0.24002,-0.368255 0.202758,-0.811033 0.591402,-0.591401 2.672421,-2.036725 3.446891,-2.230342 0.388924,-0.09723 1.246299,-0.06263 1.622068,0 1.009568,0.168262 0.983289,0.141756 1.419307,1.013791 0.09278,0.185563 -0.137573,0.673462 0,0.811035 0.105505,0.105503 1.102526,0.937776 1.216549,1.013791 0.571323,0.380881 1.678393,0.594193 2.433103,0.405516 0.32784,-0.08196 0.57208,-0.369321 0.81103,-0.608274 0.0478,-0.04779 -0.0605,-0.172532 0,-0.202758 0.36076,-0.180383 1.21295,0.398311 1.21655,0.405516 0.0605,0.120901 -0.0956,0.309935 0,0.405516 0.27867,0.278665 0.86743,0.242372 1.01379,0.608275 0.23013,0.575328 0.20276,1.037396 0.20276,1.622067 0,0.06695 0.16968,1.655149 0,1.824824 -0.32836,0.328361 -0.81072,0.202758 -1.21655,0.202758 -1.11123,0 -0.86442,0.07469 -1.82482,-0.405516 -0.19117,-0.09558 -0.4373,-0.07452 -0.60828,-0.202759 -0.1209,-0.09067 -0.0959,-0.298653 -0.20276,-0.405516 -0.0374,-0.03736 -0.57091,-0.165396 -0.60827,-0.202758 -0.23236,-0.23236 -0.37592,-0.781431 -0.60828,-1.013791 -0.10686,-0.106865 -0.29865,-0.09589 -0.40552,-0.202758 -0.14336,-0.143372 0.11248,-0.439571 0,-0.608277 -0.12857,-0.192863 -1.37068,-0.370343 -1.62206,-0.202758 -0.159057,0.10604 -0.24646,0.299479 -0.405517,0.405516 -0.218633,0.145756 -0.79516,0.259763 -1.01379,0.405519 -0.439211,0.292807 -0.843296,0.640535 -1.216552,1.013791 -0.106862,0.106862 -0.09589,0.298654 -0.202758,0.405516 -0.330041,0.330041 -1.045935,0.512334 -1.419307,0.811033 -0.298545,0.238836 -0.492921,0.598958 -0.811035,0.811035 -0.05624,0.03749 -0.135171,0 -0.202758,0 -0.270344,0.13517 -0.559541,0.237855 -0.811033,0.405516 -0.159057,0.106037 -0.23954,0.310674 -0.405516,0.405516 -0.543322,0.31047 -1.290971,0.544106 -1.824826,0.811033 -0.59368,0.296841 -1.595091,-0.211749 -2.23034,0 -0.286745,0.09558 -0.52429,0.309936 -0.811035,0.405516 -0.477795,0.159266 -1.114631,-0.05074 -1.622065,0 -0.654098,0.06541 -1.737815,0.107538 -2.4331,0.405517 -0.527675,0.226147 -1.070015,0.627017 -1.622066,0.811035 -0.06412,0.02138 -0.176135,-0.06212 -0.202758,0 -0.303556,0.708292 -0.531598,1.463564 -0.608277,2.230339 -0.08352,0.835248 0,1.788324 0,2.635859 0,0.135173 -0.09558,0.309935 0,0.405516 0.306009,0.306009 0.707784,0.505026 1.013794,0.811033 0.106862,0.106865 0.09589,0.298654 0.202758,0.405519 0.419092,0.419092 0.275352,0.119525 0.608274,0.202758 1.044125,0.26103 1.731087,0.882965 2.635859,-0.202758 0.926901,-1.112285 -0.01947,-0.255445 0.202758,-0.811036 0.441902,-1.104757 0.278926,-0.561964 1.01379,-1.419307 0.281639,-0.328578 0.650309,-0.611981 0.811033,-1.01379 0.103494,-0.258734 0.03556,-0.588103 0.202758,-0.811035 0.08111,-0.108138 0.277284,0.04275 0.405519,0 0.286742,-0.09558 0.530397,-0.293262 0.811033,-0.405517 0.159041,-0.06362 4.042137,-0.0098 4.055165,0 0.194948,0.146212 0.233207,0.435965 0.405516,0.608275 0.04779,0.04779 0.15497,-0.04779 0.202759,0 0.106862,0.106865 0.09589,0.298653 0.202758,0.405519 0.129998,0.129995 1.36689,0.398026 1.419309,0.405516 0.334534,0.04779 0.743448,0.202758 1.013791,0 0.973786,-0.73034 3.282749,-3.278616 4.460689,-3.446891 1.28211,-0.183161 2.59899,0.253024 3.8524,-0.202758 1.01763,-0.370049 2.68893,-1.198859 3.85241,-0.811036 0.18135,0.06045 0.27034,0.270346 0.40552,0.405517 0.20275,0.202758 0.50178,0.34204 0.60827,0.608277 0.17749,0.443722 0.0869,0.95567 0.20276,1.419307 0.15551,0.622035 0.51431,1.190569 0.60828,1.824826 0.007,0.04611 0.59058,6.523651 0.40551,6.893782 -0.005,0.0093 -0.82718,-0.202758 -1.41931,-0.202758 -0.9678,0 -1.94153,0.02106 -2.83861,0.405516 -0.2783,0.119269 -1.16478,0.556498 -1.41931,0.811033 -0.0478,0.04779 0.0375,0.146523 0,0.202758 -0.33229,0.49843 -1.0665,0.699921 -1.62207,0.811032 -0.14302,0.02861 -3.763707,0.124913 -4.055164,0 -1.310754,-0.56175 -2.510412,-1.321575 -3.852407,-1.824823 -0.627103,-0.235164 -3.487031,0.01339 -4.055166,0.202758 -0.704286,0.234762 -3.348569,-0.101991 -3.85241,-0.202758 -0.14819,-0.02964 -0.256445,-0.177914 -0.405516,-0.202758 -0.266666,-0.04444 -0.543407,0.03823 -0.811033,0 -1.102876,-0.157554 -0.158535,-0.233934 -1.216549,-0.811033 -1.201414,-0.655317 -2.54441,-1.016849 -3.85241,-1.419309 -0.608899,-0.187354 -1.437891,0.235876 -2.027581,0 -0.140319,-0.05613 -0.06759,-0.337931 -0.202758,-0.405517 -0.762072,-0.381034 -3.833196,-0.815837 -4.663443,-0.608274 -1.230683,0.307671 -0.173961,-0.0288 -0.811032,0.608274 -0.172313,0.172313 -0.435965,0.233204 -0.608275,0.405517 -0.82545,0.825449 -0.793385,1.939337 -1.013793,3.041375 -0.141171,0.705868 -0.409787,1.708496 -0.202758,2.4331 0.05252,0.183806 0.307165,0.241596 0.405519,0.405516 1.152247,1.920412 -1.297541,-1.236657 0.608274,1.622065 0.08383,0.125746 0.314841,0.08186 0.405516,0.202758 0.365752,0.48767 0.44078,1.442818 1.013791,1.824826 0.231862,0.154575 0.5549,0.09299 0.811033,0.202759 0.75829,0.324982 1.320157,0.994851 2.027584,1.419309 0.44137,0.264822 0.972404,0.352901 1.419309,0.608275 0.211577,0.120901 0.405517,0.270343 0.608275,0.405516 0.202758,0.202758 0.359312,0.466011 0.608274,0.608274 0.483897,0.276514 1.100222,0.209825 1.622065,0.405517 1.162929,0.436096 2.357816,1.216551 3.649652,1.216551 0.151125,0 0.260763,-0.159332 0.405516,-0.202758 0.533824,-0.16015 1.084374,-0.258874 1.622066,-0.405519 0.680757,-0.185661 1.408123,-0.270386 2.027584,-0.608274 1.239078,-0.67586 0.450575,-0.591379 1.01379,-1.013791 0.465119,-0.34884 0.972667,-0.641591 1.41931,-1.013791 0.440563,-0.367138 0.724789,-0.921493 1.216549,-1.216551 1.875848,-1.125509 -0.234114,0.216693 1.622065,-0.608275 0.497935,-0.221303 0.883203,-0.71356 1.41931,-0.811032 1.930879,-0.351071 3.929824,-0.202758 5.879993,-0.202758 0.85108,0 3.1356,-0.260657 3.85241,0 1.1216,0.407855 2.41363,1.264806 3.64964,1.419307 1.61797,0.202247 3.35941,-0.07646 4.86621,-0.608275 1.36018,-0.480068 1.38251,-0.88142 2.83861,-1.013791 0.78623,-0.07148 1.92403,0.07334 2.63586,0.202759 0.57969,0.105399 1.39015,0.617844 1.82482,0.811032 0.56941,0.253071 1.26017,0.14201 1.82483,0.405516 0.66247,0.309153 1.38619,0.631706 1.82482,1.216549 0.81609,1.088118 1.13288,2.478667 1.82483,3.649652 0.51683,0.874628 1.08054,0.746771 0.81103,1.824823 -0.76279,3.051189 -2.10729,5.230699 -5.27172,6.285508 -1.19602,0.398677 -3.0726,0.202758 -4.25792,0.202758 -0.82781,0 -2.20296,0.228658 -3.04137,0 -3.41974,-0.932656 0.10967,-0.151574 -3.04138,-1.622065 -0.89174,-0.41615 -1.92493,-0.445561 -2.83862,-0.811035 -1.99086,-0.796346 -3.44007,-2.752061 -5.06895,-4.055166 -1.08348,-0.866783 -7.318728,-0.804558 -7.907577,-0.608274 -2.24708,0.749027 -2.497995,1.909413 -4.055166,3.244133 -0.479369,0.410887 -1.269166,0.735962 -1.824825,1.013791 -0.270344,0.135173 -0.516634,0.337052 -0.811033,0.405516 -2.620804,0.609491 -5.254985,1.170562 -7.907576,1.622068 -0.533021,0.09073 -1.083595,-0.04895 -1.622065,0 -0.951886,0.08653 -1.889352,0.293838 -2.838616,0.405516 -0.201369,0.02368 -0.412364,-0.05224 -0.608275,0 -1.786154,0.476308 -3.245345,1.131369 -5.068959,1.41931 -1.820135,0.287387 -3.685688,-0.07968 -5.474472,0.202758 -0.761172,0.120184 -1.482752,0.421375 -2.230342,0.608274 -1.537899,0.384474 -3.169357,0.682948 -4.663443,1.216549 -0.426966,0.15249 -0.799825,0.429681 -1.216549,0.608275 -0.08969,0.03844 -2.55678,0.746821 -2.838616,1.216551 -0.104318,0.17386 0.03333,0.40828 0,0.60827 -0.03514,0.21082 -0.240991,0.398 -0.202759,0.60828 0.320837,1.76459 2.543138,5.91667 4.257924,6.48826 3.569475,1.18983 7.441435,-0.0594 10.94895,-0.81103 0.336974,-0.0722 0.67586,-0.13517 1.013791,-0.20276 0.473104,-0.27034 0.899705,-0.64694 1.41931,-0.81103 0.784053,-0.2476 1.630457,-0.22715 2.433097,-0.40552 0.417275,-0.0927 0.79642,-0.32674 1.216552,-0.40551 0.667597,-0.12518 1.357593,-0.0911 2.027581,-0.20276 0.149072,-0.0249 0.256448,-0.17792 0.405519,-0.20276 2.892137,-0.48202 5.800228,-0.40552 8.718606,-0.40552 1.013793,0 2.039371,-0.15415 3.041375,0 3.093643,0.47595 4.454088,2.25779 7.09654,3.44689 0.57931,0.26069 1.737929,0.37656 2.4331,0.60828 1.513628,0.50454 3.254298,0.89866 4.866198,1.01379 0.74156,0.053 1.53021,0.25005 2.23034,0 0.60046,-0.21445 1.08675,-0.66741 1.62207,-1.01379 0.61377,-0.39715 1.26675,-0.74433 1.82483,-1.21655 0.33036,-0.27954 0.50502,-0.70778 0.81103,-1.01379 0.83141,-0.83142 2.28069,-2.04437 3.44689,-2.4331 0.45338,-0.15113 0.95068,-0.10904 1.41931,-0.20276 0.5465,-0.1093 1.06597,-0.36844 1.62206,-0.40552 0.61209,-0.0408 2.06641,0.32355 2.63586,0.60828 0.17098,0.0855 0.23954,0.31067 0.40552,0.40552 1.20462,0.68835 2.23375,0.61111 3.44689,1.62206 0.1161,0.0968 0.0959,0.29865 0.20276,0.40552 0.39472,0.39472 0.58176,0.0588 1.01379,0.20276 0.79271,0.26423 2.02944,0.89952 2.63586,1.4193 1.24424,1.0665 2.16714,2.43804 3.24413,3.64965 0.3175,0.3572 0.64061,0.71525 1.01379,1.0138 0.11801,0.0944 -0.0516,-0.40552 -0.20276,-0.40552 -0.52786,0 0.74782,0.76059 1.0138,1.21655 0.24792,0.42501 0.14473,1.00206 0.40551,1.41931 0.43134,0.69014 1.11926,1.18488 1.62207,1.82482 0.24348,0.30988 0.37921,0.69311 0.60827,1.01379 0.69943,0.9792 1.56285,1.83738 2.23034,2.83862 0.0375,0.0562 -0.0478,0.15497 0,0.20276 0.0478,0.0478 0.15497,-0.0478 0.20276,0 0.17232,0.17231 0.23321,0.43596 0.40552,0.60827 0.70148,0.70148 1.56154,0.97444 1.82483,2.02759 0.21743,0.86975 -1.39794,1.57296 -2.02759,1.82482 -0.31997,0.12799 -0.68685,0.0938 -1.01379,0.20276 -1.27429,0.42476 -2.08461,1.11176 -3.44689,1.21655 -2.04577,0.15737 -4.08427,-0.50357 -6.08275,-0.81103 -1.60748,-0.24731 -3.74519,0.50962 -5.27172,-0.20276 -0.71423,-0.33331 -1.29808,-0.91812 -2.02758,-1.21655 -1.92408,-0.78713 -2.53406,-0.41674 -4.25792,-0.60828 -0.27697,-0.0308 -0.53452,-0.16819 -0.81104,-0.20275 -0.60358,-0.0755 -1.21809,0.0433 -1.82482,0 -3.98802,-0.28486 0.51734,-0.20276 -4.05517,-0.20276 -0.9462,0 -1.90399,-0.14758 -2.83862,0 -2.80287,0.44256 -3.05381,1.05832 -6.08275,2.02758 -1.405404,0.44973 -3.013488,0.28492 -4.460677,0.40552 -1.307375,0.10894 -2.543299,0.47736 -3.852407,0.60827 -2.521535,0.25215 -5.442773,-0.19747 -7.907576,-0.60827 -0.149069,-0.0249 -0.2589,-0.16611 -0.405516,-0.20276 -0.398836,-0.0997 -0.819925,-0.0946 -1.216549,-0.20276 -1.505114,-0.41048 -2.449229,-1.53279 -3.649649,-2.4331 -0.885921,-0.66444 -1.917497,-1.0359 -2.838617,-1.62207 -0.490503,-0.31213 -0.920763,-0.71466 -1.41931,-1.01379 -0.705363,-0.42322 -3.038152,-0.95115 -3.852407,-1.01379 -2.161259,-0.16625 -4.567711,-0.0332 -6.691024,0.20276 -0.26869,0.0298 -0.554561,-0.0855 -0.811033,0 -0.803394,0.2678 -1.472895,0.83783 -2.230342,1.21655 -0.46038,0.23019 -0.9414,0.41711 -1.419307,0.60827 -0.258733,0.1035 -0.613989,0.006 -0.811035,0.20276 -0.243684,0.24369 -0.02545,0.71828 -0.202758,1.01379 -0.07775,0.12959 -0.298654,0.0959 -0.405516,0.20276 -0.320323,0.32033 -0.29781,1.01379 -0.811033,1.01379"
       id="path578" />
  </g>
</svg>
