<?xml version="1.0" encoding="UTF-8" standalone="no"?>
<!-- Created with Inkscape (http://www.inkscape.org/) -->

<svg
   width="210mm"
   height="297mm"
   viewBox="0 0 210 297"
   version="1.1"
   id="svg5"
   inkscape:version="1.2.1 (9c6d41e410, 2022-07-14)"
   sodipodi:docname="freehand-simpler.svg"
   xmlns:inkscape="http://www.inkscape.org/namespaces/inkscape"
   xmlns:sodipodi="http://sodipodi.sourceforge.net/DTD/sodipodi-0.dtd"
   xmlns="http://www.w3.org/2000/svg"
   xmlns:svg="http://www.w3.org/2000/svg">
  <sodipodi:namedview
     id="namedview7"
     pagecolor="#ffffff"
     bordercolor="#999999"
     borderopacity="1"
     inkscape:showpageshadow="0"
     inkscape:pageopacity="0"
     inkscape:pagecheckerboard="0"
     inkscape:deskcolor="#d1d1d1"
     inkscape:document-units="mm"
     showgrid="false"
     inkscape:zoom="1.3049198"
     inkscape:cx="407.6879"
     inkscape:cy="382.01582"
     inkscape:window-width="2256"
     inkscape:window-height="1398"
     inkscape:window-x="-11"
     inkscape:window-y="-11"
     inkscape:window-maximized="1"
     inkscape:current-layer="layer1" />
  <defs
     id="defs2" />
  <g
     inkscape:label="Layer 1"
     inkscape:groupmode="layer"
     id="layer1">
    <path
       style="fill:none;stroke:#000000;stroke-width:0.264583"
       d="m 96.107439,48.256478 c -5.275703,-0.804962 -11.33875,3.848092 -10.812952,9.409521 3.231035,4.910679 7.199237,-1.265609 9.687879,-3.325631 3.642628,-0.71536 4.877094,3.431517 8.418064,2.73246 4.59473,1.153656 1.0516,6.822652 -1.94734,3.157721 -3.807432,-3.605817 -5.983827,0.953181 -8.860349,2.733276 -3.809,1.669793 -8.978287,0.04009 -11.79153,3.761117 -2.538969,4.691527 5.138874,7.987593 5.842461,2.203752 3.671044,-3.665922 9.589829,2.0016 13.140542,-2.696558 4.208076,-3.294792 11.067796,-1.563448 10.513936,4.564574 1.45791,5.602876 -5.39118,5.659477 -9.03766,6.778354 C 96.08221,76.780733 90.989624,75.600981 85.652069,75.334979 81.44586,74.362464 76.981558,70.454271 72.746674,73.62207 c -3.222114,3.2801 -0.50486,8.538885 2.978384,10.421711 2.853484,1.538847 5.872168,3.299724 9.126492,3.621116 4.829016,-0.298101 7.395773,-5.885056 12.322148,-5.88321 5.768502,-1.864086 11.673272,3.413912 17.283872,0.282786 5.70034,-2.148541 13.42825,2.723914 12.25813,9.152117 -1.57091,4.973102 -7.82679,5.779599 -12.21486,4.686882 -5.53307,-0.976232 -9.13437,-6.184883 -14.571385,-7.276207 -5.797608,-0.395262 -9.260161,5.67864 -14.902024,6.027041 -4.608902,0.699945 -9.306248,0.933135 -13.803795,2.204275 -5.103382,0.71605 -10.538903,0.805094 -15.181128,3.253119 -4.169733,3.95867 2.030064,10.05999 6.629492,9.04748 6.533192,-0.36292 12.438694,-4.05207 19.075362,-3.80137 5.239834,-0.84326 10.522355,0.0865 14.968727,3.02995 4.359741,2.30183 10.248181,3.17849 13.780231,-1.01085 2.53995,-2.75927 6.60048,-4.45367 10.02146,-2.21721 4.85088,1.9212 9.65996,4.85702 12.02205,9.70544 1.69648,3.30829 7.94007,7.01792 5.74894,10.64851 -4.0893,2.59466 -9.34316,1.64088 -13.85312,0.93374 -8.00889,-2.50524 -17.02069,-3.6854 -24.959322,-0.26561 -6.836331,0.91323 -14.732313,2.3975 -20.614698,-2.25378 -5.586368,-4.84144 -14.897073,-5.83051 -20.641104,-0.79437 l -0.557755,0.65188 -0.484927,0.70808"
       id="path578" />
  </g>
</svg>
