<?xml version="1.0" encoding="UTF-8" standalone="no"?>
<svg
   viewBox="0 0 793.7007874015749 1122.5196850393702"
   width="793.7007874015749"
   height="1122.5196850393702"
   version="1.1"
   id="svg741"
   sodipodi:docname="toilet-small.svg"
   inkscape:version="1.2.1 (9c6d41e410, 2022-07-14)"
   xmlns:inkscape="http://www.inkscape.org/namespaces/inkscape"
   xmlns:sodipodi="http://sodipodi.sourceforge.net/DTD/sodipodi-0.dtd"
   xmlns="http://www.w3.org/2000/svg"
   xmlns:svg="http://www.w3.org/2000/svg">
  <sodipodi:namedview
     id="namedview743"
     pagecolor="#ffffff"
     bordercolor="#999999"
     borderopacity="1"
     inkscape:showpageshadow="0"
     inkscape:pageopacity="0"
     inkscape:pagecheckerboard="0"
     inkscape:deskcolor="#d1d1d1"
     showgrid="false"
     inkscape:zoom="7.8384499"
     inkscape:cx="365.37836"
     inkscape:cy="543.21965"
     inkscape:window-width="2256"
     inkscape:window-height="1398"
     inkscape:window-x="-11"
     inkscape:window-y="-11"
     inkscape:window-maximized="1"
     inkscape:current-layer="g739" />
  <desc
     id="desc501">toilet.dxf - scale = 1.000000, origin = (0.000000, 0.000000), method = manual</desc>
  <defs
     id="defs515">
    <marker
       id="DistanceX"
       orient="auto"
       refX="0.0"
       refY="0.0"
       style="overflow:visible">
      <path
         d="M 3,-3 L -3,3 M 0,-5 L  0,5"
         style="stroke:#000000; stroke-width:0.5"
         id="path503" />
    </marker>
    <pattern
       id="Hatch"
       patternUnits="userSpaceOnUse"
       width="8"
       height="8"
       x="0"
       y="0">
      <path
         d="M8 4 l-4,4"
         stroke="#000000"
         stroke-width="0.25"
         linecap="square"
         id="path506" />
      <path
         d="M6 2 l-4,4"
         stroke="#000000"
         stroke-width="0.25"
         linecap="square"
         id="path508" />
      <path
         d="M4 0 l-4,4"
         stroke="#000000"
         stroke-width="0.25"
         linecap="square"
         id="path510" />
    </pattern>
    <symbol
       id="*MODEL_SPACE" />
    <symbol
       id="*PAPER_SPACE" />
  </defs>
  <g
     inkscape:groupmode="layer"
     inkscape:label="0"
     id="g739">
    <path
       id="path621"
       style="fill:none;stroke:#000000"
       d="m 73.576604,683.49738 c 0.139673,3.61944 -0.430856,6.0882 1.989615,13.58124 3.327146,10.29983 11.718088,19.42811 19.27023,28.42882 10.062411,11.99248 23.130321,23.48926 34.841621,36.445 9.13626,10.10708 17.37847,21.12035 23.34966,32.70766 5.79265,11.24083 9.41908,22.98275 11.06532,33.4216 1.51589,9.61221 1.35888,17.96153 1.25674,24.17706 -0.057,3.47079 -0.19481,6.26563 0.62446,8.99463 0.52017,1.73272 1.67003,3.4628 3.31965,4.55461 2.52944,1.67412 5.72371,2.16205 10.0347,2.49452 4.96882,0.38322 11.54391,0.41142 19.08787,0.40542 12.87662,-0.0101 28.2755,-0.0247 39.8961,-0.087 6.49385,-0.0348 11.70948,-0.0836 15.54441,-0.53841 2.65446,-0.31482 4.85702,-0.80096 6.66941,-2.24969 1.3973,-1.11693 2.25007,-2.76606 2.63508,-4.36026 0.56852,-2.3541 0.49491,-4.82256 0.45411,-7.84911 -0.0637,-4.72197 -0.16099,-10.80319 0.38195,-17.54166 0.70096,-8.69989 2.44562,-18.2093 5.6531,-26.84947 2.92848,-7.88862 7.0351,-15.06477 12.50568,-22.55926 6.30835,-8.64221 14.49993,-17.97945 23.30653,-27.97791 13.12044,-14.8961 27.4358,-31.10629 36.65662,-44.99619 7.30092,-10.99785 11.58916,-20.46492 9.96568,-28.63967 -0.93008,-4.68325 -3.88808,-8.60192 -8.02125,-11.74245 -6.62411,-5.03324 -16.41589,-8.61647 -27.2106,-11.84791 -12.67926,-3.79559 -26.49001,-6.93587 -37.77632,-10.33391 -10.47913,-3.15501 -18.84907,-6.65346 -24.42511,-10.94616 -6.04459,-4.6534 -8.97361,-9.96537 -9.29874,-16.81606 l 1e-5,-41.67106 c -1.2e-4,-3.72704 3.04638,-6.7364 6.7742,-6.69097 l 70.95786,0.8695 c 3.78968,0.0461 6.8867,-3.01323 6.88688,-6.80146 v -12.41614 c -1.8e-4,-2.50278 2.0304,-4.53336 4.53521,-4.53272 l 44.62379,1.4e-4 c 2.92216,-5e-4 5.026,-11.04369 5.026,-13.96601 0,-2.92233 -2.19223,-11.70035 -5.11439,-11.69837 l -75.29276,-0.0828 c -5.41179,-0.17725 -5.85373,-25.35632 -0.44194,-25.36617 l 19.8605,-0.006 c 3.75753,3e-4 6.89104,-9.89397 6.90505,-13.19064 0.014,-3.29666 -3.14752,-12.11801 -6.90505,-12.11901 H 106.47732 c -3.7573,0.001 -6.803168,3.04687 -6.803177,6.80165 v 83.919 c 5e-6,3.72644 2.995467,6.75881 6.720107,6.80643 l 70.47806,0.86136 c 3.40448,0.041 6.14216,2.81269 6.14216,6.219 v 42.67327 c -0.0381,0.12211 -0.0849,0.26773 -0.14094,0.4374 -0.18669,0.5658 -0.4737,1.40156 -0.88943,2.44052 -0.83147,2.07794 -2.18075,4.96649 -4.32545,7.93007 -3.06653,4.23738 -7.82241,8.49039 -14.71793,11.55446 -6.1253,2.72182 -13.97097,4.52972 -22.26812,6.13774 -10.5579,2.04617 -10.12682,3.16994 -19.49563,6.02519 -10.801,3.29172 -13.94774,9.1467 -18.73984,15.5343 -3.598407,4.79648 -4.837157,10.53118 -4.000386,16.03284 1.032622,6.78934 4.876856,13.23415 11.039916,18.53228 7.69299,6.61334 12.92894,10.88853 28.91701,13.82694 13.00357,2.3899 18.35895,3.61526 36.90016,4.05189 22.98819,0.54134 36.91938,1.95346 60.72337,1.09182 17.28642,-0.62572 28.89638,-1.40707 41.87585,-2.61839 22.2807,-2.07938 32.37567,-5.65817 40.9164,-14.04085 5.57397,-5.47083 9.96267,-13.36022 10.3236,-22.65262"
       sodipodi:nodetypes="csssssssssssssssssssssssssccccccccscccczccccccscssssssssssssssc" />
  </g>
</svg>
