<?xml version="1.0" encoding="UTF-8" standalone="no"?>
<svg
   viewBox="0 0 793.7007874015749 1122.5196850393702"
   width="793.7007874015749"
   height="1122.5196850393702"
   version="1.1"
   id="svg741"
   sodipodi:docname="toilet.svg"
   inkscape:version="1.2.1 (9c6d41e410, 2022-07-14)"
   xmlns:inkscape="http://www.inkscape.org/namespaces/inkscape"
   xmlns:sodipodi="http://sodipodi.sourceforge.net/DTD/sodipodi-0.dtd"
   xmlns="http://www.w3.org/2000/svg"
   xmlns:svg="http://www.w3.org/2000/svg">
  <sodipodi:namedview
     id="namedview743"
     pagecolor="#ffffff"
     bordercolor="#999999"
     borderopacity="1"
     inkscape:showpageshadow="0"
     inkscape:pageopacity="0"
     inkscape:pagecheckerboard="0"
     inkscape:deskcolor="#d1d1d1"
     showgrid="false"
     inkscape:zoom="2"
     inkscape:cx="230.5"
     inkscape:cy="586"
     inkscape:window-width="2256"
     inkscape:window-height="1398"
     inkscape:window-x="-11"
     inkscape:window-y="-11"
     inkscape:window-maximized="1"
     inkscape:current-layer="g739" />
  <desc
     id="desc501">toilet.dxf - scale = 1.000000, origin = (0.000000, 0.000000), method = manual</desc>
  <defs
     id="defs515">
    <marker
       id="DistanceX"
       orient="auto"
       refX="0.0"
       refY="0.0"
       style="overflow:visible">
      <path
         d="M 3,-3 L -3,3 M 0,-5 L  0,5"
         style="stroke:#000000; stroke-width:0.5"
         id="path503" />
    </marker>
    <pattern
       id="Hatch"
       patternUnits="userSpaceOnUse"
       width="8"
       height="8"
       x="0"
       y="0">
      <path
         d="M8 4 l-4,4"
         stroke="#000000"
         stroke-width="0.25"
         linecap="square"
         id="path506" />
      <path
         d="M6 2 l-4,4"
         stroke="#000000"
         stroke-width="0.25"
         linecap="square"
         id="path508" />
      <path
         d="M4 0 l-4,4"
         stroke="#000000"
         stroke-width="0.25"
         linecap="square"
         id="path510" />
    </pattern>
    <symbol
       id="*MODEL_SPACE" />
    <symbol
       id="*PAPER_SPACE" />
  </defs>
  <g
     inkscape:groupmode="layer"
     inkscape:label="0"
     id="g739">
    <path
       id="path621"
       style="fill:none;stroke:#000000"
       d="m 73.576604,683.49738 c 0.139673,3.61944 -0.430856,6.0882 1.989615,13.58124 3.327146,10.29983 11.718088,19.42811 19.27023,28.42882 10.062411,11.99248 23.130321,23.48926 34.841621,36.445 9.13626,10.10708 17.37847,21.12035 23.34966,32.70766 5.79265,11.24083 9.41908,22.98275 11.06532,33.4216 1.51589,9.61221 1.35888,17.96153 1.25674,24.17706 -0.057,3.47079 -0.19481,6.26563 0.62446,8.99463 0.52017,1.73272 1.67003,3.4628 3.31965,4.55461 2.52944,1.67412 5.72371,2.16205 10.0347,2.49452 4.96882,0.38322 11.54391,0.41142 19.08787,0.40542 12.87662,-0.0101 28.2755,-0.0247 39.8961,-0.087 6.49385,-0.0348 11.70948,-0.0836 15.54441,-0.53841 2.65446,-0.31482 4.85702,-0.80096 6.66941,-2.24969 1.3973,-1.11693 2.25007,-2.76606 2.63508,-4.36026 0.56852,-2.3541 0.49491,-4.82256 0.45411,-7.84911 -0.0637,-4.72197 -0.16099,-10.80319 0.38195,-17.54166 0.70096,-8.69989 2.44562,-18.2093 5.6531,-26.84947 2.92848,-7.88862 7.0351,-15.06477 12.50568,-22.55926 6.30835,-8.64221 14.49993,-17.97945 23.30653,-27.97791 13.12044,-14.8961 27.4358,-31.10629 36.65662,-44.99619 7.30092,-10.99785 11.58916,-20.46492 9.96568,-28.63967 -0.93008,-4.68325 -3.88808,-8.60192 -8.02125,-11.74245 -6.62411,-5.03324 -16.41589,-8.61647 -27.2106,-11.84791 -12.67926,-3.79559 -26.49001,-6.93587 -37.77632,-10.33391 -10.47913,-3.15501 -18.84907,-6.65346 -24.42511,-10.94616 -6.04459,-4.6534 -8.97361,-9.96537 -9.29874,-16.81606 l 1.2e-4,-41.67221 m 6.77417,-6.68965 c -3.7279,-0.0456 -6.7744,2.96376 -6.7744,6.69194 m 6.77423,-6.69229 70.958,0.87 m -10e-5,-6.4e-4 c 3.78973,0.0464 6.88675,-3.01291 6.88675,-6.80292 m 3.5e-4,-58.41644 v 58.42 m 4.53508,-62.95128 c -2.50485,0 -4.53543,2.03058 -4.53543,4.53543 m 49.15935,-4.53415 h -44.624 m 44.62366,-10e-4 c 2.92233,0 5.02617,-1.04319 5.02617,-3.96551 0,-2.92233 -2.19223,-3.70035 -5.11456,-3.70035 m -75.46366,0.004 h 75.464 m -75.37596,-7.45621 c -5.05254,0.004 -5.14093,7.27146 -0.0884,7.45225 m 19.58974,-7.45286 h -19.501 m 19.5015,6.1e-4 c 3.75728,0 6.80315,-3.04587 6.80315,-6.80315 m 3.5e-4,-1.70746 v 1.71 m -3.5e-4,-1.70519 c 0,-3.75728 -3.04587,-6.80315 -6.80315,-6.80315 m -5e-4,-0.002 h -216.6909 m -3e-5,0.002 c -3.75728,0 -6.803148,3.04587 -6.803148,6.80315 m -1.9e-5,-0.005 v 83.92 m 1.9e-5,0.003 c -4e-6,3.72494 2.995458,6.75731 6.720118,6.80293 m -4e-5,0.004 70.478,0.86 m 169.01082,111.17522 c -0.36093,9.2924 -4.74963,17.18179 -10.3236,22.65262 -8.54073,8.38268 -18.6357,11.96147 -40.9164,14.04085 -12.97947,1.21132 -28.58943,1.99267 -45.87585,2.61839 -23.80399,0.86164 -50.48518,1.44952 -73.47337,0.90818 -18.54121,-0.43663 -34.64659,-1.66199 -47.65016,-4.05189 -15.98807,-2.93841 -27.47402,-7.7136 -35.16701,-14.32694 -6.163056,-5.29813 -10.007294,-11.74294 -11.039916,-18.53228 -0.836771,-5.50166 0.401979,-11.23636 4.000388,-16.03284 4.792102,-6.3876 13.474366,-10.94969 24.275368,-14.24141 9.36881,-2.85525 20.4022,-4.77191 30.9601,-6.81808 8.29715,-1.60802 16.14282,-3.41592 22.26812,-6.13774 6.89552,-3.06407 11.6514,-7.31708 14.71793,-11.55446 2.1447,-2.96358 3.49398,-5.85213 4.32545,-7.93007 0.41573,-1.03896 0.70274,-1.87472 0.88943,-2.44052 0.056,-0.16967 0.10287,-0.31529 0.14094,-0.4374 v -42.67327 c 0,-3.40631 -2.73768,-6.17795 -6.14208,-6.21965"
       sodipodi:nodetypes="cssssssssssssssssssssssssscccccccccccccccsccccccccccccccccccccccccsssssssssssssscsc" />
  </g>
</svg>
