<?xml version="1.0" encoding="UTF-8" standalone="no"?>
<!-- Created with Inkscape (http://www.inkscape.org/) -->

<svg
   width="210mm"
   height="297mm"
   viewBox="0 0 210 297"
   version="1.1"
   id="svg593"
   sodipodi:docname="tree.svg"
   inkscape:version="1.2.1 (9c6d41e410, 2022-07-14)"
   xmlns:inkscape="http://www.inkscape.org/namespaces/inkscape"
   xmlns:sodipodi="http://sodipodi.sourceforge.net/DTD/sodipodi-0.dtd"
   xmlns="http://www.w3.org/2000/svg"
   xmlns:svg="http://www.w3.org/2000/svg">
  <sodipodi:namedview
     id="namedview595"
     pagecolor="#ffffff"
     bordercolor="#999999"
     borderopacity="1"
     inkscape:showpageshadow="0"
     inkscape:pageopacity="0"
     inkscape:pagecheckerboard="0"
     inkscape:deskcolor="#d1d1d1"
     inkscape:document-units="mm"
     showgrid="false"
     inkscape:zoom="8.4955914"
     inkscape:cx="304.39317"
     inkscape:cy="760.74751"
     inkscape:window-width="2256"
     inkscape:window-height="1398"
     inkscape:window-x="-11"
     inkscape:window-y="-11"
     inkscape:window-maximized="1"
     inkscape:current-layer="layer1" />
  <defs
     id="defs590">
    <inkscape:path-effect
       effect="fillet_chamfer"
       id="path-effect475"
       is_visible="true"
       lpeversion="1"
       nodesatellites_param="F,0,0,1,0,0,0,1 @ F,0,0,1,0,0.52916667,0,1 @ F,0,0,1,0,0.52916667,0,1 @ F,0,0,1,0,0.52916667,0,1 @ F,0,0,1,0,0.52916667,0,1 @ F,0,0,1,0,0.52916667,0,1 @ F,0,0,1,0,0.52916667,0,1 @ F,0,0,1,0,0.52916667,0,1 @ F,0,0,1,0,0.52916667,0,1 @ F,0,0,1,0,0.52916667,0,1 @ F,0,0,1,0,0.52916667,0,1 @ F,0,0,1,0,0.52916667,0,1 @ F,0,0,1,0,0.52916667,0,1 @ F,0,0,1,0,0.52916667,0,1 @ F,0,0,1,0,0.52916667,0,1 @ F,0,0,1,0,0.52916667,0,1 @ F,0,0,1,0,0.52916667,0,1 @ F,0,0,1,0,0.52916667,0,1 @ F,0,0,1,0,0.52916667,0,1 @ F,0,0,1,0,0.52916667,0,1 @ F,0,0,1,0,0.52916667,0,1 @ F,0,0,1,0,0,0,1"
       unit="px"
       method="auto"
       mode="F"
       radius="2"
       chamfer_steps="1"
       flexible="false"
       use_knot_distance="true"
       apply_no_radius="true"
       apply_with_radius="true"
       only_selected="false"
       hide_knots="false" />
    <inkscape:path-effect
       effect="fillet_chamfer"
       id="path-effect469"
       is_visible="true"
       lpeversion="1"
       nodesatellites_param="F,0,0,1,0,0,0,1 @ F,0,0,1,0,0,0,1 @ F,0,0,1,0,0,0,1 @ F,0,0,1,0,0,0,1 @ F,0,0,1,0,0,0,1 @ F,0,0,1,0,0,0,1 @ F,0,0,1,0,0,0,1 @ F,0,0,1,0,0,0,1 @ F,0,0,1,0,0,0,1 @ F,0,0,1,0,0,0,1 @ F,0,0,1,0,0,0,1 @ F,0,0,1,0,0,0,1 @ F,0,0,1,0,0,0,1 @ F,0,0,1,0,0,0,1 @ F,0,0,1,0,0,0,1 @ F,0,0,1,0,0,0,1 @ F,0,0,1,0,0,0,1 @ F,0,0,1,0,0,0,1 @ F,0,0,1,0,0,0,1 @ F,0,0,1,0,0,0,1 @ F,0,0,1,0,0,0,1 @ F,0,0,1,0,0,0,1 @ F,0,0,1,0,0,0,1 @ F,0,0,1,0,0,0,1 @ F,0,0,1,0,0,0,1 @ F,0,0,1,0,0,0,1 @ F,0,0,1,0,0,0,1 @ F,0,0,1,0,0,0,1 @ F,0,0,1,0,0,0,1 @ F,0,0,1,0,0,0,1 @ F,0,0,1,0,0,0,1 @ F,0,0,1,0,0,0,1 @ F,0,0,1,0,0,0,1 @ F,0,0,1,0,0,0,1 @ F,0,0,1,0,0,0,1 @ F,0,0,1,0,0,0,1 @ F,0,0,1,0,0,0,1 @ F,0,0,1,0,0,0,1 @ F,0,0,1,0,0,0,1 @ F,0,0,1,0,0,0,1 @ F,0,0,1,0,0,0,1 @ F,0,0,1,0,0,0,1 @ F,0,0,1,0,0,0,1 @ F,0,0,1,0,0,0,1 @ F,0,0,1,0,0,0,1 @ F,0,0,1,0,0,0,1 @ F,0,0,1,0,0,0,1 @ F,0,0,1,0,0,0,1 @ F,0,0,1,0,0,0,1 @ F,0,0,1,0,0,0,1 @ F,0,0,1,0,0,0,1 @ F,0,0,1,0,0,0,1 @ F,0,0,1,0,0,0,1 @ F,0,0,1,0,0,0,1 @ F,0,0,1,0,0,0,1 @ F,0,0,1,0,0,0,1 @ F,0,0,1,0,0,0,1 @ F,0,0,1,0,0,0,1 @ F,0,0,1,0,0,0,1 @ F,0,0,1,0,0,0,1 @ F,0,0,1,0,0,0,1 @ F,0,0,1,0,0,0,1 @ F,0,0,1,0,0,0,1 @ F,0,0,1,0,0,0,1 @ F,0,0,1,0,0,0,1 @ F,0,0,1,0,0,0,1 @ F,0,0,1,0,0,0,1 @ F,0,0,1,0,0,0,1 @ F,0,0,1,0,0,0,1 @ F,0,0,1,0,0,0,1 @ F,0,0,1,0,0,0,1 @ F,0,0,1,0,0,0,1"
       unit="px"
       method="auto"
       mode="F"
       radius="0"
       chamfer_steps="1"
       flexible="false"
       use_knot_distance="true"
       apply_no_radius="true"
       apply_with_radius="true"
       only_selected="false"
       hide_knots="false" />
    <inkscape:path-effect
       effect="fillet_chamfer"
       id="path-effect463"
       is_visible="true"
       lpeversion="1"
       nodesatellites_param="F,0,0,1,0,0,0,1 @ F,0,0,1,0,1.3229167,0,1 @ F,0,0,1,0,1.3229167,0,1 @ F,0,0,1,0,1.3229167,0,1 @ F,0,0,1,0,1.3229167,0,1 @ F,0,0,1,0,1.3229167,0,1 @ F,0,0,1,0,1.3229167,0,1"
       unit="px"
       method="auto"
       mode="F"
       radius="5"
       chamfer_steps="1"
       flexible="false"
       use_knot_distance="true"
       apply_no_radius="true"
       apply_with_radius="true"
       only_selected="false"
       hide_knots="false" />
    <inkscape:path-effect
       effect="fillet_chamfer"
       id="path-effect457"
       is_visible="true"
       lpeversion="1"
       nodesatellites_param="F,0,0,1,0,0,0,1 @ F,0,0,1,0,0,0,1 @ F,0,0,1,0,0,0,1 @ F,0,0,1,0,0,0,1 @ F,0,0,1,0,0,0,1 @ F,0,0,1,0,0,0,1 @ F,0,0,1,0,0,0,1 @ F,0,0,1,0,0,0,1 @ F,0,0,1,0,0,0,1 @ F,0,0,1,0,0,0,1 @ F,0,0,1,0,0,0,1 @ F,0,0,1,0,0,0,1 @ F,0,0,1,0,0,0,1 @ F,0,0,1,0,0,0,1 @ F,0,0,1,0,0,0,1 @ F,0,0,1,0,0,0,1 @ F,0,0,1,0,0,0,1 @ F,0,0,1,0,0,0,1 @ F,0,0,1,0,0,0,1 @ F,0,0,1,0,0,0,1 @ F,0,0,1,0,0,0,1 @ F,0,0,1,0,0,0,1 @ F,0,0,1,0,0,0,1 @ F,0,0,1,0,0,0,1 @ F,0,0,1,0,0,0,1 @ F,0,0,1,0,0,0,1 @ F,0,0,1,0,0,0,1 @ F,0,0,1,0,0,0,1 @ F,0,0,1,0,0,0,1 @ F,0,0,1,0,0,0,1 @ F,0,0,1,0,0,0,1 @ F,0,0,1,0,0,0,1 @ F,0,0,1,0,0,0,1 @ F,0,0,1,0,0,0,1 @ F,0,0,1,0,0,0,1 @ F,0,0,1,0,0,0,1 @ F,0,0,1,0,0,0,1 @ F,0,0,1,0,0,0,1 @ F,0,0,1,0,0,0,1 @ F,0,0,1,0,0,0,1 @ F,0,0,1,0,0,0,1 @ F,0,0,1,0,0,0,1 @ F,0,0,1,0,0,0,1 @ F,0,0,1,0,0,0,1 @ F,0,0,1,0,0,0,1 @ F,0,0,1,0,0,0,1 @ F,0,0,1,0,0,0,1 @ F,0,0,1,0,0,0,1 @ F,0,0,1,0,0,0,1 @ F,0,0,1,0,0,0,1 @ F,0,0,1,0,0,0,1 @ F,0,0,1,0,0,0,1 @ F,0,0,1,0,0,0,1 @ F,0,0,1,0,0,0,1 @ F,0,0,1,0,0,0,1 @ F,0,0,1,0,0,0,1 @ F,0,0,1,0,0,0,1 @ F,0,0,1,0,0,0,1 @ F,0,0,1,0,0,0,1 @ F,0,0,1,0,0,0,1 @ F,0,0,1,0,0,0,1 @ F,0,0,1,0,0,0,1 @ F,0,0,1,0,0,0,1 @ F,0,0,1,0,0,0,1 @ F,0,0,1,0,0,0,1 @ F,0,0,1,0,0,0,1 @ F,0,1,1,0,0,0,1 | F,0,1,1,0,0,0,1 @ F,0,0,1,0,1.7525193,0,1 @ F,0,0,1,0,0,0,1 @ F,0,0,1,0,0,0,1 @ F,0,0,1,0,0,0,1 @ F,0,0,1,0,0,0,1 @ F,0,0,1,0,0,0,1"
       unit="px"
       method="auto"
       mode="F"
       radius="0"
       chamfer_steps="1"
       flexible="false"
       use_knot_distance="true"
       apply_no_radius="true"
       apply_with_radius="true"
       only_selected="false"
       hide_knots="false" />
    <inkscape:path-effect
       effect="fillet_chamfer"
       id="path-effect449"
       is_visible="true"
       lpeversion="1"
       nodesatellites_param="F,0,0,1,0,0,0,1 @ F,0,0,1,0,1.3229167,0,1 @ F,0,0,1,0,1.3229167,0,1 @ F,0,0,1,0,1.3229167,0,1 @ F,0,0,1,0,1.3229167,0,1 @ F,0,0,1,0,1.3229167,0,1 @ F,0,0,1,0,1.3229167,0,1 @ F,0,0,1,0,1.3229167,0,1 @ F,0,0,1,0,1.3229167,0,1 @ F,0,0,1,0,1.3229167,0,1 @ F,0,0,1,0,1.3229167,0,1 @ F,0,0,1,0,1.3229167,0,1 @ F,0,0,1,0,1.3229167,0,1 @ F,0,0,1,0,1.3229167,0,1 @ F,0,0,1,0,1.3229167,0,1 @ F,0,0,1,0,1.3229167,0,1 @ F,0,0,1,0,1.3229167,0,1 @ F,0,0,1,0,1.3229167,0,1 @ F,0,0,1,0,1.3229167,0,1 @ F,0,0,1,0,1.3229167,0,1 @ F,0,0,1,0,1.3229167,0,1 @ F,0,0,1,0,1.3229167,0,1 @ F,0,0,1,0,1.3229167,0,1 @ F,0,0,1,0,1.3229167,0,1 @ F,0,0,1,0,1.3229167,0,1 @ F,0,0,1,0,1.3229167,0,1 @ F,0,0,1,0,1.3229167,0,1 @ F,0,0,1,0,1.3229167,0,1 @ F,0,0,1,0,1.3229167,0,1 @ F,0,0,1,0,1.3229167,0,1 @ F,0,0,1,0,1.3229167,0,1 @ F,0,0,1,0,1.3229167,0,1 @ F,0,0,1,0,1.3229167,0,1 @ F,0,0,1,0,1.3229167,0,1 @ F,0,0,1,0,1.3229167,0,1 @ F,0,0,1,0,1.3229167,0,1 @ F,0,0,1,0,1.3229167,0,1 @ F,0,0,1,0,1.3229167,0,1 @ F,0,0,1,0,1.3229167,0,1 @ F,0,0,1,0,1.3229167,0,1 @ F,0,0,1,0,1.3229167,0,1 @ F,0,0,1,0,1.3229167,0,1 @ F,0,0,1,0,1.3229167,0,1 @ F,0,0,1,0,1.3229167,0,1 @ F,0,0,1,0,1.3229167,0,1 @ F,0,0,1,0,1.3229167,0,1 @ F,0,0,1,0,1.3229167,0,1 @ F,0,0,1,0,1.3229167,0,1 @ F,0,0,1,0,1.3229167,0,1 @ F,0,0,1,0,1.3229167,0,1 @ F,0,0,1,0,1.3229167,0,1 @ F,0,0,1,0,1.3229167,0,1 @ F,0,0,1,0,1.3229167,0,1 @ F,0,0,1,0,1.3229167,0,1 @ F,0,0,1,0,1.3229167,0,1 @ F,0,0,1,0,1.3229167,0,1 @ F,0,0,1,0,1.3229167,0,1 @ F,0,0,1,0,1.3229167,0,1 @ F,0,0,1,0,1.3229167,0,1 @ F,0,0,1,0,1.3229167,0,1 @ F,0,0,1,0,1.3229167,0,1 @ F,0,0,1,0,1.3229167,0,1 @ F,0,0,1,0,1.3229167,0,1 @ F,0,0,1,0,1.3229167,0,1 @ F,0,0,1,0,1.3229167,0,1 @ F,0,0,1,0,1.3229167,0,1 @ F,0,0,1,0,1.3229167,0,1 @ F,0,0,1,0,1.3229167,0,1 @ F,0,0,1,0,1.3229167,0,1 @ F,0,0,1,0,1.3229167,0,1 @ F,0,0,1,0,1.3229167,0,1 @ F,0,0,1,0,1.3229167,0,1 @ F,0,0,1,0,1.3229167,0,1"
       unit="px"
       method="auto"
       mode="F"
       radius="5"
       chamfer_steps="1"
       flexible="false"
       use_knot_distance="true"
       apply_no_radius="true"
       apply_with_radius="true"
       only_selected="false"
       hide_knots="false" />
  </defs>
  <g
     inkscape:label="Layer 1"
     inkscape:groupmode="layer"
     id="layer1">
    <path
       style="fill:none;stroke:#000000;stroke-width:0.264583"
       d="m 77.847342,202.81133 -8.02841,-0.38231 a 0.98578662,0.98578662 129.41837 0 0 -1.003851,1.22131 l 3.7361,15.10869 c 0.175388,0.70926 0.909804,1.29237 1.64039,1.29998 8.460419,0.0881 11.951809,-0.12471 17.147972,-0.0861 0.727299,0.005 1.48649,-0.55257 1.695759,-1.25259 l 4.50754,-15.07796 a 0.98608589,0.98608589 53.344375 0 0 -0.944001,-1.26852 l -8.872423,-0.007 a 1.313709,1.313709 45.244857 0 1 -1.312643,-1.32391 l 0.07039,-9.06352"
       id="path461"
       inkscape:path-effect="#path-effect463"
       inkscape:original-d="m 77.847342,202.81133 -9.349829,-0.44523 4.371236,17.67715 c 10.17106,0.13587 13.534753,-0.15013 19.787638,-0.0554 l 5.26537,-17.61294 -11.518255,-0.009 0.08066,-10.3864" />
    <path
       style="fill:none;stroke:#000000;stroke-width:0.264583"
       d="m 86.277113,48.109966 c 0.04734,4.08292 3.006727,7.10068 6.663496,7.881776 3.656769,0.781096 10.577171,0.276425 7.988701,3.252602 -2.588465,2.976177 -12.673497,0.864117 -10.620105,3.990417 2.053392,3.1263 15.377145,1.292469 10.041905,5.882207 -5.335235,4.589738 -12.129631,-4.785542 -18.779383,-5.167009 -6.649752,-0.381467 -8.571616,0.551182 -11.148048,4.690688 -2.576432,4.139506 2.979884,7.831784 9.095106,5.826553 6.115222,-2.005231 15.83946,0.388839 20.811595,1.420085 4.97214,1.031246 5.40621,2.846095 3.70814,7.174609 -1.69807,4.328514 -7.106737,-0.202858 -9.961023,-2.911278 -2.854286,-2.70842 -10.171819,-3.523182 -12.221548,-0.568444 -2.049729,2.954738 -2.232624,6.348547 0.568444,7.389773 2.801068,1.041226 2.464665,4.710537 -1.590345,4.210097 -4.05501,-0.50044 -14.503218,-4.963365 -16.884088,2.611232 -2.38087,7.574596 6.356272,10.268256 11.630824,8.973766 5.274552,-1.29449 6.728239,-2.60963 11.138122,-4.868649 4.409883,-2.259016 8.62733,-4.877208 13.976984,-6.067313 5.34965,-1.190105 6.29288,1.001815 7.94492,6.794362 1.65204,5.79255 -5.77744,8.84234 -11.186668,9.51378 -5.409232,0.67144 -7.237535,2.1987 -12.755972,1.57049 -5.518437,-0.62821 -11.784058,-3.67945 -19.011183,-1.86303 -7.227125,1.81642 -10.389303,8.55359 -4.002132,8.2705 6.387171,-0.28309 7.480572,-2.5911 14.472444,-0.90979 6.991872,1.68131 4.357115,5.78781 -0.40571,6.49161 -4.762825,0.7038 -10.99049,-5.804 -16.191223,-0.14551 -5.200733,5.65849 7.845071,10.72692 11.837682,6.16528 3.992611,-4.56164 11.025888,-1.56035 17.246691,-3.89823 6.220803,-2.33788 11.731881,-10.76866 17.782701,-8.11603 6.05082,2.65263 7.95398,5.53626 2.71383,10.49008 -5.24015,4.95382 -13.415384,1.07008 -17.990395,4.88946 -4.575011,3.81938 -3.843513,8.44312 3.21203,6.78894 7.055545,-1.65418 13.335865,-2.7738 19.610135,-6.5624 6.27427,-3.7886 10.60211,4.72961 11.36888,10.80043 0.76677,6.07082 -5.82777,7.65196 -12.22155,7.95822 -6.39378,0.30626 -11.58063,-3.87254 -17.260057,-6.7531 -5.679427,-2.88056 -14.243129,-3.34378 -21.109915,-6.03689 -6.866786,-2.69311 -16.229955,-3.55091 -20.151095,-2.47655 -3.92114,1.07436 -5.59093,1.75986 -7.861836,6.14736 -2.270906,4.3875 -3.491925,15.46673 3.675903,16.96079 7.167828,1.49406 11.220999,-1.39033 18.029511,-3.53471 6.808512,-2.14438 16.175018,-2.79697 22.620298,-0.24257 6.44528,2.5544 9.752331,6.74731 16.088531,7.58877 6.3362,0.84146 8.82247,1.70148 16.3373,-0.88636 7.51483,-2.58784 13.53991,10.47497 8.57097,14.54704 -4.96894,4.07207 -10.7513,6.24736 -17.3786,4.51202 -6.6273,-1.73534 -14.683398,-3.64154 -19.182772,-8.79337 -4.499374,-5.15183 -11.570557,-9.41937 -17.337545,-4.26333 -5.766988,5.15604 -1.336109,8.81052 6.122729,11.07429 7.458838,2.26377 0.257745,13.69264 -5.750145,8.00523 -6.00789,-5.68741 -10.644584,-13.07494 -17.105635,-15.9665 -6.461051,-2.89156 -12.683459,-5.48306 -16.732056,-0.19725 -2.484454,3.24368 -3.231383,7.61545 2.220628,10.26917 5.452011,2.65372 10.118479,6.31155 13.393975,9.79625 3.275496,3.4847 8.630457,4.82121 13.018729,3.16724 4.388272,-1.65397 6.70677,-1.63038 7.430105,0.45813 0.849657,2.45324 2.310808,8.90224 -2.912051,9.36643"
       id="path473"
       sodipodi:nodetypes="csssssssssssssssssssssssssssssssssssssssssssssssssssssssc" />
    <path
       style="fill:none;stroke:#000000;stroke-width:0.264583"
       d="m 89.056444,46.580969 10.530352,6.021649 a 0.60936364,0.60936364 168.79174 0 0 0.783844,-0.155323 0.58796736,0.58796736 84.659246 0 0 -0.0711,-0.760851 l -8.417517,-8.951855 a 1.0494558,1.0494558 73.520625 0 1 -0.268068,-0.906179 0.80228667,0.80228667 136.15924 0 1 0.530869,-0.509811 l 8.843336,-4.145144 a 0.57469888,0.57469888 112.24805 0 0 0.29477,-0.7206 l -0.0635,-0.170753 a 0.67926088,0.67926088 31.690281 0 0 -0.71041,-0.438591 l -9.600378,1.047935 a 1.4955545,1.4955545 13.255636 0 1 -0.971138,-0.228774 0.96363016,0.96363016 62.741536 0 1 -0.364929,-0.708295 l -1.423369,-9.617138 a 0.60007931,0.60007931 40.174395 0 0 -0.606519,-0.512083 l -0.06548,0.0014 a 0.61820156,0.61820156 138.20486 0 0 -0.599415,0.535848 l -1.313578,9.789959 a 1.3347534,1.3347534 119.26807 0 1 -0.480994,0.858242 0.91451844,0.91451844 173.09681 0 1 -0.70736,0.08564 l -9.207257,-1.089536 a 0.64525047,0.64525047 147.39368 0 0 -0.689361,0.440972 l -0.08158,0.250501 a 0.571235,0.571235 65.228022 0 0 0.325317,0.704955 l 8.942412,3.688969 a 0.79617801,0.79617801 56.026721 0 1 0.492539,0.730954 1.7696569,1.7696569 106.409 0 1 -0.261921,0.889417 l -5.708046,9.882788 a 0.68108006,0.68108006 82.164132 0 0 0.113941,0.827928 0.45637417,0.45637417 169.52202 0 0 0.636793,-0.117769 l 6.347801,-6.589286 a 0.88311737,0.88311737 164.86081 0 1 0.876325,-0.237094 0.51711692,0.51711692 66.593326 0 1 0.268305,0.619817 l -0.133217,1.035132"
       id="path770"
       inkscape:path-effect="#path-effect475"
       inkscape:original-d="m 89.056444,46.580969 10.989716,6.284331 0.61585,-0.79335 -9.142512,-9.722867 0.146154,-0.805895 9.801618,-4.594322 -0.4322,-1.162775 -10.65246,1.162775 -0.73255,-0.471025 -1.578319,-10.664066 -1.123563,0.02417 -1.45432,10.838893 -0.592483,0.4816 -10.258257,-1.213906 -0.409302,1.256815 9.920768,4.092565 0.0061,0.960346 -6.237366,10.799242 0.648265,0.633027 7.082059,-7.351476 0.845045,0.23898 -0.200761,1.55997"
       sodipodi:nodetypes="cccccccccccccccccccccc" />
    <!--
-->
  </g>
</svg>
